<svg enable-background="new 0 0 1000 258.563" height="258.563" viewBox="0 0 1000 258.563" width="1000" xmlns="http://www.w3.org/2000/svg"><path d="m258.087 128.076c-.019-2.635-2.205-4.878-4.869-4.878-.383 0-.759.074-1.134.167-42.904 8.871-87.648 12.425-133.462 9.905-14.116-.783-28 0-41.67 1.051-1.043.067-2.065.192-3.09.332-10.956 1.501-21.432 6.362-29.55 14.292-7.209 7.055-12.312 16.145-14.484 26.018-2.611 11.873-.768 24.139 4.269 35.12 4.87 10.663 12.69 19.937 22.396 26.6 10.54 7.063 22.118 12.572 34.276 16.276 7.667 2.301 14.495 3.727 22.559 4.727.108-3.051 4.711-7.813 4.874-10.105.162-2.294-1.572-4.313-3.857-4.461-12.562.476-21.776.167-33.566-4.22-12.099-4.527-23.047-11.998-31.694-21.563-4.16-4.611-7.608-9.664-9.832-15.468-2.184-5.82-3.113-12.048-2.763-18.228 1.175-20.771 17.34-38.354 37.968-41.316 11.407-1.633 23.219 1.301 32.524 8.104 4.857 3.536 9.009 8.099 12.048 13.251 3.449 5.861 6.333 12.065 8.343 18.568 4.173 13.55 4.549 28.367 2.765 42.351-.776 5.929-2.022 11.809-3.724 17.577-.954 3.259-2.117 6.503-3.398 9.655-.229.584-.366 1.2-.366 1.87 0 2.65 2.117 4.768 4.723 4.845.326 0 .888.016 1.222.016 31.744 0 60.798-11.424 83.315-30.345.017-.008.058-.058.075-.066.926-.892 1.456-2.077 1.456-3.411 0-.99-.342-1.858-.795-2.649-8.443-14.652-26.822-35.687-26.822-35.687s20.801 18.617 35.717 26.773c.806.424 1.686.773 2.683.773 1.333 0 2.547-.516 3.413-1.409.055-.032.105-.084.154-.157 18.924-22.479 30.307-51.479 30.307-83.125-.001-.391-.011-.783-.011-1.183" fill="#187fc3"/><path d="m24.149 187.285c-5.112-11.356-8.271-23.62-9.038-36.004-.088-1.685-.064-3.936-.072-5.611 0-2.319-1.868-4.202-4.189-4.202-2.322 0-7.25 4.235-10.698 4.235 3.523 27.349 15.904 53.181 35.021 73.061 9.352 9.748 20.937 17.293 34.096 20.861 11.298 3.068 23.3 1.675 33.736-3.585 4.995-2.535 9.589-5.928 13.396-10.058 4.064-4.368 7.187-9.695 10.083-14.884 3.04-5.501 5.679-11.196 8.068-17.024 2.518-6.17 4.619-12.533 7.404-18.644 10.535-22.981 25.374-44.002 45.423-59.646 9.801-7.646 20.5-14.064 31.864-19.118 5.782-2.569 11.708-4.763 17.77-6.571 2.885-.859 5.832-1.66 8.768-2.359 2.629-.817 4.089-3.603 3.202-6.171-7.342-18.585-19.141-35.313-34.024-48.612-.101-.099-.188-.191-.288-.284-.855-.741-1.968-1.226-3.202-1.226-1.335 0-2.452.793-3.469 1.509-23.897 16.569-41.496 44.242-41.496 44.242s9.314-23.655 29.184-52.83c.505-.7.725-1.585.725-2.501 0-1.66-.813-3.101-2.068-3.97-.145-.1-.303-.199-.466-.284-12.295-7.146-25.72-12.332-39.715-15.108-10.194-2.035-20.638-2.835-31.019-2.376-.025-.017-.067-.017-.088-.017-.058 0-.099.017-.158.017-2.598.074-4.586 2.217-4.69 4.819-1.322 33.97 5.336 92.372 5.336 92.372s-11.864-57.55-23.555-89.486c-.701-1.936-2.434-3.395-4.594-3.395-.334 0-.668.034-.963.083-.037.026-.071.049-.113.049-.838.209-1.671.451-2.51.693-19.537 5.795-37.605 16.243-52.377 30.243-2.542 2.41-4.969 4.944-7.333 7.579-.05.049-.121.125-.164.15-.8.892-1.305 2.027-1.305 3.311 0 1.316.472 2.685 1.451 3.435 25.524 19.379 44.348 41.451 44.348 41.451s-24.172-17.827-52.902-29.15c-.821-.309-1.597-.726-2.518-.726-1.676 0-3.135.851-4.015 2.135-.017.018-.026.042-.042.066-4.148 7.088-7.684 14.525-10.427 22.248-3.49 9.831-5.77 20.112-6.804 30.508-.263 2.652-.434 5.371 2.288 6.855 1.076.599 2.272.692 3.458.458 1.759-.384 3.526-.716 5.303-1.001 6.866-1.116 13.799-1.617 20.716-1.559 13.892.134 27.724 2.66 40.712 7.495 11.985 4.494 22.942 11.507 31.246 21.346 15.627 18.562 24.003 50.438 5.971 70.218-8.267 9.071-20.441 13.492-32.628 12.407-6.266-.594-11.815-2.776-17.289-5.736-4.995-2.709-9.736-5.828-13.975-9.59-9.255-8.237-16.334-18.902-21.375-30.118" fill="#f9be00"/><g fill="#231815"><path d="m578.022 120.729c0-2.11 11.857-.449 17.396 1.226 4.443 1.369 11.539 3.41 19.001 9.164 4.252 3.294 9.462 9.13 9.462 16.133 0 6.964-4.2 10.509-9.336 10.509-2.786-.375-5.654-2.043-8.171-4.578-2.535-2.519-4.504-7.604-11.843-16.02-8.304-9.505-16.509-15.024-16.509-16.434"/><path d="m570.152 52.239.017-13.307 5.852-1.851-.008-.033c.702-.193 1.262-.801 1.262-1.601 0-.81-.635-1.477-1.436-1.602v-.042l-26.918-4.036v22.472h-58.73l1.863 4.019h138.682s1.668-2.435 0-4.019c-1.667-1.602-16.424-10.73-16.424-10.73l-9.808 10.73z"/><path d="m546.147 126.107.014-.023-23.871-8.33c-8.821 14.608-16.985 26.397-29.843 37.28l.017.016c-.279.217-.466.551-.466.934 0 .709.581 1.277 1.263 1.277.163 0 .313-.052.442-.109v.018c.017-.018.024-.018.051-.018v-.009c11.339-4.119 27.737-14.551 47.148-27.767l4.754-.024c.915 0 1.682-.734 1.682-1.659-.001-.759-.508-1.369-1.191-1.586"/><path d="m806.508 71.384c-2.185-2.092-18.128-11.907-18.128-11.907l-9.948 11.907h-35.378l.017-32.452 5.863-1.851-.012-.033c.728-.193 1.269-.801 1.269-1.601 0-.81-.651-1.477-1.434-1.602v-.042l-28.001-4.036v41.617h-53.946l1.866 4.028h52.08c-.322 19.877-4.935 35.346-11.755 46.619-8.488 14.218-21.497 27.399-42.426 38.799 0 0-.017 0-.017.025-.083.051-.158.084-.225.125h.007c-.317.258-.532.599-.532 1.025 0 .699.558 1.249 1.259 1.249.116 0 .242-.033.359-.048l.015.015c25.24-7.237 45.521-18.652 56.002-32.419 8.971-11.781 15.293-25.098 17.144-42.35 1.885 15.318 5.751 27.643 11.481 36.838 7.313 13.125 19.451 25.616 35.962 35.905.118.083.217.15.341.218.191.082.409.125.611.125.366 0 .684-.125.94-.317.367-.241.635-.709.718-1.151 1.093-6.104 9.047-11.406 15.141-13.599-19.512-10.85-35.429-23.839-43.166-33.646-9.308-11.723-15.808-24.206-19.226-37.413h63.118c.001 0 2.17-1.936.001-4.028"/><path d="m880.034 35.078c-.167.318-.135.86.243 1.452 1.734 2.786 6.245 9.348 8.78 13.708 3.102 5.361 3.401 7.363 5.328 9.314 1.71 1.684 7.571 3.042 11.124.633 3.567-2.436 3.976-7.404 2.493-11.158-1.476-3.768-6.889-9.789-12.774-12.065-5.888-2.257-14.176-3.759-15.194-1.884"/><path d="m908.937 30.41c-.327.349-.485.966-.019 1.566 1.935 2.502 5.938 7.505 9.032 12.542 3.958 6.371 4.478 10.021 6.645 12.207 3.419 3.369 9.473 2.709 11.498.667 2.91-2.894 3.937-7.913 2.818-11.666-1.76-5.92-7.194-10.931-14.876-13.599-6.803-2.36-13.814-2.993-15.098-1.717"/><path d="m878.051 53.874c3.228.542 5.326 12.991 2.125 24.081-2.642 9.105-8.903 13.207-15.85 11.665-5.388-1.208-7.205-5.987-5.536-11.54 1.449-4.828 5.901-8.506 9.071-11.564 3.233-3.145 7.095-8.464 7.972-10.982.333-.943.915-1.877 2.218-1.66"/><path d="m937.429 117.52v34.595c0 8.34-16.354 10.998-21.297 10.998-2.562 0-2.46-2.459-3.585-4.645-.952-1.818-3.879-4.354-20.122-5.603l-1.385-3.201h25.799l-.017-32.145h-58.116l-1.852-4.027h59.968v-15.667l24.681 2.719c2.361 1.207-.516 5.126-4.074 6.62v6.328h31.458l11.173-11.999s13.359 9.98 15.486 11.999c2.102 2.018 0 4.027 0 4.027h-58.117z"/><path d="m999.772 67.473c0-.649-.374-1.192-.934-1.484h.015l-.091-.067-21.429-10.674-5.945 8.532-20.529-.092 23.898-21.096 6.703-.759c.937 0 1.669-.759 1.669-1.676 0-.708-.425-1.3-1.036-1.55l-24.671-8.839c-3.878 9.864-8.681 21.863-14.417 33.921h-62.921l-.149 4.002 92.653.242-6.153 19.528 2.519.735 23.64-18.595 5.694-.45v-.042c.816-.085 1.484-.768 1.484-1.636"/><path d="m972.974 87.46v-.017l-20.521-13.366-6.044 6.37h-62.271l1.842 4.019h59.353l-11.396 18.335c1.884.392.265 3.779 3.493 4.362l28.341-17.119 6.053.468v-.034c.082 0 .15.034.217.034.935 0 1.667-.759 1.667-1.677-.002-.575-.292-1.067-.734-1.375"/><path d="m413.563 131.211c-10.077-4.452-17.982-10.098-23.723-16.935h25.82v6.103l19.983-2.968v-41.308l4.595-2.143c.775-.325 1.305-1.059 1.305-1.942 0-.792-.464-1.484-1.118-1.843l-19.348-10.948-6.483 8.33h-25.99v-14.717h59.98s1.931-2.319 0-4.169c-1.95-1.868-15.196-9.522-15.196-9.522l-8.555 9.522h-36.229l.017-9.739 5.873-1.851-.016-.033c.718-.193 1.255-.801 1.255-1.601 0-.81-.613-1.477-1.426-1.602l.016-.042-26.311-4.036v18.904h-59.84l1.718 4.169h58.122v14.716h-27.211l-19.053-7.295v60.118l19.99-2.968v-3.135l20.246-.016c-15.642 19.318-34.128 31.317-52.889 42.006h.017c-.4.217-.679.643-.679 1.119 0 .691.57 1.258 1.255 1.258.125 0 .254-.05.367-.075l.008.009c16.989-5.536 36.721-10.857 57.951-27.791v32.326l20.592-2.8v-40.267c3.101 6.563 6.669 10.74 10.697 15.191 8.994 10.391 21.534 16.962 37.802 23.039 2.631-8.162 6.137-14.45 12.328-16.384l1.01-1.585c-13.025-2.524-25.422-3.609-36.88-9.095m-45.552-20.962h-26.274v-18.069h26.274zm0-22.064h-26.274v-16.601h26.274zm20.592-16.609h27.049v16.602h-27.049zm0 20.604h27.049v18.069h-27.049z"/><path d="m617.321 72.919v-.018l-19.956-11.314-6.483 8.346h-61.447l-19.836-7.304v52.273l20.613-2.952v-3.426h19.96v41.141h-25.799l1.384 3.201c16.244 1.249 19.18 3.784 20.121 5.603 1.145 2.186 1.035 4.645 3.596 4.645 4.925 0 21.285-2.658 21.285-10.998v-43.591h21.188v5.786l20.597-2.962v-31.819-.667l4.604-2.159c.765-.309 1.309-1.059 1.309-1.951-.001-.793-.452-1.468-1.136-1.834m-25.374 31.451h-61.735v-30.443h61.735z"/><path d="m372.217 204.22c.146 0 .275-.1.275-.332v-1.068c0-7.619 0-9.021-.078-10.622-.092-1.709-.484-2.493-2.055-2.852-.384-.109-1.197-.148-1.866-.148-.52 0-.816-.109-.816-.468 0-.326.351-.435 1.014-.435h12.878c.676 0 1.004.108 1.004.435 0 .358-.279.468-.85.468-.404 0-.82.039-1.384.148-1.297.25-1.676 1.102-1.776 2.852-.087 1.601-.087 28.033.155 30.192.134 1.401.417 2.503 1.851 2.719.684.093 1.726.192 2.427.192.537 0 .775.142.775.392 0 .356-.376.501-.955.501h-13.416c-.672 0-.998-.145-.998-.501 0-.25.196-.392.759-.392.718 0 1.297-.1 1.718-.192.947-.216 1.193-1.317 1.372-2.768.241-2.11.241-6.063.241-10.683v-4.402c0-.217-.128-.31-.275-.31h-18.227c-.138 0-.3.033-.3.31v4.402c0 4.62 0 8.572.267 10.731.125 1.401.417 2.503 1.843 2.719.684.093 1.726.192 2.427.192.546 0 .792.142.792.392 0 .356-.401.501-.971.501h-13.466c-.609 0-.938-.145-.938-.501 0-.25.179-.392.742-.392.726 0 1.296-.1 1.722-.192.959-.216 1.205-1.317 1.392-2.768.25-2.11.25-28.543.146-30.144-.104-1.709-.471-2.493-2.068-2.852-.366-.109-1.192-.148-1.859-.148-.514 0-.795-.109-.795-.468 0-.326.333-.435 1.007-.435h12.879c.671 0 1.006.108 1.006.435 0 .358-.289.468-.865.468-.391 0-.808.039-1.379.148-1.292.25-1.685 1.102-1.768 2.852-.113 1.601-.113 3.003-.113 10.622v1.068c0 .232.163.332.3.332h18.226z"/><path d="m430.511 180.916c-.138-2.276-.642-3.344-2.731-3.803-.513-.15-1.597-.225-2.493-.225-.692 0-1.088-.125-1.088-.594 0-.466.455-.607 1.4-.607h17.111c.967 0 1.417.142 1.417.607 0 .469-.383.594-1.021.594-.709 0-1.076.074-1.856.225-1.705.316-2.225 1.483-2.347 3.803-.129 2.126-.129 23.545-.129 23.545 0 9.691 1.846 13.768 4.969 16.427 2.852 2.478 5.783 2.771 7.959 2.771 2.793 0 6.225-.96 8.775-3.621 3.495-3.685 3.682-9.696 3.682-16.584 0 0 0-20.412-.113-22.538-.133-2.276-.646-3.344-2.747-3.803-.514-.15-1.597-.225-2.289-.225-.701 0-1.084-.125-1.084-.594 0-.466.453-.607 1.342-.607h14.563c.897 0 1.351.142 1.351.607 0 .469-.392.594-1.143.594-.708 0-1.113.074-1.854.225-1.726.316-2.227 1.483-2.355 3.803-.138 2.126-.138 21.328-.138 21.328 0 7.439-.684 15.318-6.046 20.13-4.515 4.075-9.101 4.818-13.216 4.818-3.373 0-9.493-.199-14.142-4.618-3.235-3.085-5.648-8.03-5.648-17.721.001.001.001-21.811-.129-23.937"/><path d="m651.684 192.197c-.101-1.709-.576-2.56-1.617-2.793-.535-.168-1.145-.207-1.737-.207-.474 0-.756-.109-.756-.502 0-.292.384-.4 1.157-.4h12.025c.617 0 1.016.108 1.016.4 0 .393-.316.502-.799.502-.467 0-.834.039-1.418.148-1.284.25-1.658 1.102-1.769 2.852-.101 1.601-.101 28.291.11 30.435.141 1.351.459 2.261 1.89 2.477.685.093 1.711.192 2.453.192.503 0 .768.142.768.392 0 .356-.4.501-.918.501h-13.456c-.616 0-.968-.145-.968-.501 0-.25.19-.392.766-.392.718 0 1.285-.1 1.718-.192.959-.216 1.251-1.076 1.392-2.518.243-2.103.243-28.793.143-30.394"/><path d="m714.203 213.21c0-2.701-.482-3.802-1.1-5.264-.317-.798-6.739-11.847-8.407-14.43-1.182-1.862-2.375-3.112-3.3-3.672-.618-.35-1.434-.647-2.003-.647-.366 0-.716-.109-.716-.468 0-.285.35-.435.919-.435h11.105c.492 0 .718.149.718.435 0 .308-.335.358-1.051.558-.418.117-.669.501-.669.9 0 .426.251 1.017.582 1.708.671 1.502 7.356 13.577 8.107 15.003.482-1.219 6.503-12.234 7.17-13.811.468-1.073.65-1.941.65-2.6 0-.492-.183-1.059-1-1.252-.428-.091-.852-.199-.852-.507 0-.326.235-.435.819-.435h9.587c.518 0 .852.108.852.4 0 .342-.384.502-.899.502-.469 0-1.394.207-2.103.591-1.001.509-1.527 1.107-2.578 2.476-1.559 2-8.244 13.784-9.11 15.951-.727 1.784-.727 3.344-.727 4.995 0 0 0 7.021.158 9.131.101 1.45.515 2.552 1.941 2.768.686.093 1.727.192 2.396.192.516 0 .768.142.768.392 0 .356-.386.501-1.003.501h-13.265c-.676 0-1.053-.077-1.053-.501 0-.25.228-.392.759-.392.669 0 1.235-.1 1.668-.192.968-.216 1.384-1.317 1.485-2.768.152-2.109.152-9.129.152-9.129"/><path d="m743.655 207.256c0-8.589 5.387-19.686 19.693-19.686 11.892 0 19.28 7.278 19.28 18.77 0 11.506-7.64 20.562-19.757 20.562-13.681-.001-19.216-10.792-19.216-19.646m32.303.959c0-11.24-6.556-18.219-14.377-18.219-5.486 0-11.339 3.218-11.339 15.684 0 10.431 5.853 18.712 15.025 18.712 3.336 0 10.691-1.693 10.691-16.177"/><path d="m852.826 207.256c0-8.589 5.379-19.686 19.703-19.686 11.882 0 19.278 7.278 19.278 18.77 0 11.506-7.637 20.562-19.754 20.562-13.698-.001-19.227-10.792-19.227-19.646m32.295.959c0-11.24-6.537-18.219-14.357-18.219-5.487 0-11.341 3.218-11.341 15.684 0 10.431 5.861 18.712 15.026 18.712 3.344 0 10.672-1.693 10.672-16.177"/><path d="m926.439 189.197c.557 0 1.358.298 1.991.647.901.56 2.1 1.81 3.286 3.672 1.683 2.583 8.069 13.632 8.402 14.43.626 1.462 1.102 2.563 1.102 5.264 0 0 0 7.021-.149 9.131-.093 1.45-.517 2.552-1.478 2.768-.424.093-.998.192-1.668.192-.524 0-.766.142-.766.392 0 .424.386.501 1.06.501h13.274c.599 0 .993-.145.993-.501 0-.25-.26-.392-.777-.392-.667 0-1.718-.1-2.366-.192-1.454-.216-1.877-1.317-1.96-2.768-.16-2.11-.16-9.131-.16-9.131 0-1.651 0-3.211.718-4.995.868-2.167 7.555-13.951 9.123-15.951 1.05-1.368 1.584-1.967 2.585-2.476.716-.384 1.608-.591 2.103-.591.516 0 .897-.16.897-.502 0-.292-.333-.4-.867-.4h-9.588c-.585 0-.815.108-.815.435 0 .308.424.416.849.507.818.193 1.033.76 1.033 1.252 0 .658-.215 1.526-.683 2.6-.669 1.576-6.688 12.592-7.156 13.811-.766-1.426-7.453-13.501-8.104-15.003-.352-.691-.574-1.282-.574-1.708 0-.399.223-.783.657-.9.702-.199 1.035-.25 1.035-.558 0-.285-.217-.435-.718-.435h-21.888c-.525 0-.766.108-.766.435 0 .308.19.416.606.507.484.109.684.468.684 1.009 0 .844-1.05 2.111-2.384 3.753-1.385 1.718-8.337 9.18-9.98 11.041h-.226v-2.22c0-7.619 0-9.021.083-10.622.101-1.75.484-2.602 1.786-2.852.556-.109.849-.148 1.324-.148.375 0 .659-.109.659-.468 0-.326-.326-.435-1.001-.435h-12.455c-.709 0-1.052.108-1.052.435 0 .358.301.468.818.468.666 0 1.466.039 1.875.148 1.551.358 1.943 1.143 2.025 2.852.111 1.601.111 28.033-.141 30.144-.192 1.45-.416 2.552-1.373 2.768-.435.093-1.002.192-1.721.192-.558 0-.766.142-.766.392 0 .356.333.501.969.501h12.873c.516 0 .916-.145.916-.501 0-.25-.25-.392-.625-.392-.626 0-1.678-.1-2.325-.192-1.219-.216-1.644-1.317-1.734-2.719-.135-2.159-.135-6.111-.135-10.731v-4.568h.226l.526.766c1.007 1.443 10.388 13.017 12.507 14.993 2.05 1.909 3.342 3.01 5.911 3.268 1.008.077 1.861.077 3.294.077h4.16c.907 0 1.158-.145 1.158-.501 0-.284-.298-.392-.635-.392-.573 0-1.533-.151-2.976-.743-2.56-1.067-4.702-3.319-6.804-5.428-1.858-1.844-11.232-12.432-12.949-14.792 1.626-1.81 8.84-9.33 10.322-10.821 2.053-2.146 3.671-3.163 5.154-3.78.903-.336 2.104-.543 2.781-.543"/><path d="m958.715 207.256c0-8.589 5.395-19.686 19.72-19.686 11.899 0 19.286 7.278 19.286 18.77 0 11.506-7.646 20.562-19.762 20.562-13.709-.001-19.244-10.792-19.244-19.646m32.319.959c0-11.24-6.537-18.219-14.376-18.219-5.486 0-11.348 3.218-11.348 15.684 0 10.431 5.879 18.712 15.033 18.712 3.346 0 10.691-1.693 10.691-16.177"/><path d="m632.056 230.528c-4.254-.284-8.14-1.535-11.467-4.854-3.201-3.208-8.764-11.055-11.964-17.117 4.835-4.119 6.319-7.545 6.319-11.24 0-3.352-1.908-5.945-3.26-6.869-2.568-1.861-5.769-2.152-8.78-2.152h-13.291c-.726 0-1.044.108-1.044.435 0 .358.283.468.811.468.684 0 1.468.039 1.884.148 1.552.358 1.927 1.143 2.035 2.852.092 1.601.092 3.003.092 10.622v8.839c0 4.62 0 8.572-.242 10.683-.185 1.45-.415 2.552-1.375 2.768-.434.093-.993.192-1.71.192-.584 0-.784.142-.784.392 0 .356.334.501.958.501h12.852c.616 0 .948-.145.948-.501 0-.25-.198-.392-.558-.392-.575 0-1.625-.1-2.345-.192-1.432-.216-1.717-1.317-1.865-2.768-.218-2.11-.218-6.063-.218-10.739v-.703c0-.282.117-.39.366-.39l4.137.107c.351 0 .7 0 .876.342.575 1.116 2.918 6.746 5.097 10.174 2.107 3.375 4.175 6.094 6.353 7.813 2.633 2.067 5.259 2.867 8.513 3.158 4.145.375 6.995 0 7.804-.241.692-.174 1.51-.41 1.51-.926-.002-.542-.812-.342-1.652-.41m-25.583-23.181c-.858.651-1.467.868-3.384.868-1.184 0-2.638-.166-3.628-.526-.335-.143-.409-.342-.409-.884v-15.26c0-.398.074-.59.409-.689.483-.159 1.343-.192 2.534-.192 2.811 0 7.314 2.019 7.314 9.164.001 4.102-1.402 6.418-2.836 7.519"/><path d="m340.069 187.937c-.213 0-.596.2-1.297.342h-26.969c-1.188-.093-1.667-.708-2.051-.708-.302 0-.427.315-.572.975-.105.492-1.077 5.937-1.077 5.937h.01c-.01.033-.017.076-.017.116 0 .284.222.518.504.518.213 0 .383-.133.475-.308 0-.019 0-.019 0-.043.154-.408.438-1.248.872-2.036.718-1.074 1.856-1.357 4.627-1.434h7.105s0 28.936-.229 31.046c-.146 1.45-.429 2.552-1.393 2.768-.426.093-1 .192-1.718.192-.563 0-.767.142-.767.392 0 .356.35.501.954.501h13.516c.523 0 .906-.145.906-.501 0-.25-.238-.392-.768-.392-.717 0-1.76-.1-2.425-.192-1.443-.216-1.73-1.317-1.868-2.719-.23-2.159-.23-31.095-.23-31.095h6c4.236.103 5.498 1.478 5.587 2.779l.108 1.024c0 .292.233.525.503.525.292 0 .521-.233.521-.525 0 0 .063-5.438.063-6.12.018-.741-.052-1.042-.37-1.042"/><path d="m696.586 187.937c-.21 0-.585.2-1.293.342h-26.965c-1.185-.093-1.669-.708-2.054-.708-.284 0-.433.315-.573.975-.11.492-1.069 5.937-1.069 5.937 0 .033-.015.076-.015.116 0 .284.223.518.525.518.182 0 .365-.133.433-.308h.016c0-.019 0-.019 0-.043.168-.408.433-1.248.877-2.036.708-1.074 1.86-1.357 4.608-1.434h7.114s0 28.936-.226 31.046c-.149 1.45-.416 2.552-1.385 2.768-.416.093-.991.192-1.716.192-.577 0-.752.142-.752.392 0 .356.318.501.95.501h13.51c.517 0 .908-.145.908-.501 0-.25-.258-.392-.778-.392-.713 0-1.763-.1-2.415-.192-1.444-.216-1.744-1.317-1.869-2.719-.241-2.159-.241-31.095-.241-31.095h6.006c4.252.103 5.494 1.478 5.577 2.779l.125 1.024c0 .292.227.525.491.525.3 0 .517-.233.517-.525 0 0 .076-5.438.076-6.12.008-.741-.04-1.042-.382-1.042"/><path d="m859.274 175.18c-.269 0-.77.251-1.721.475h-36.011c-1.594-.144-2.236-.942-2.762-.942-.367 0-.55.416-.742 1.269-.132.657-1.443 7.928-1.443 7.928l.036.017c-.036.042-.051.093-.051.149 0 .359.317.686.69.686.269 0 .511-.176.608-.393h.027v-.031s0-.028.006-.028c.201-.558.569-1.683 1.137-2.7.967-1.468 2.493-1.81 6.185-1.943h9.498s0 38.631-.325 41.441c-.182 1.937-.566 3.418-1.851 3.686-.55.126-1.316.26-2.283.26-.753 0-1.01.215-1.01.533 0 .49.435.692 1.274.692h18.021c.698 0 1.208-.202 1.208-.692 0-.318-.315-.533-1.018-.533-.959 0-2.351-.134-3.234-.26-1.935-.268-2.31-1.749-2.502-3.61-.318-2.886-.318-41.517-.318-41.517h8.03c5.653.134 7.314 1.96 7.447 3.712l.168 1.368c0 .374.284.657.666.657.385 0 .684-.283.684-.657 0 0 .067-7.272.082-8.157.001-1.01-.045-1.41-.496-1.41"/><path d="m410.181 219.046c0-.3-.225-.509-.495-.509-.26 0-.463.176-.506.417-.446 2.051-1.629 3.345-2.876 3.962-1.23.6-3.227.6-4.475.6-4.875 0-4.984-.626-5.081-4.077-.05-1.467 0-11.75 0-11.75 0-.282.042-.499.283-.499 1.143 0 5.875.066 6.78.157 1.769.199 2.443.936 2.673 1.952.129.65.084 1.258.075 1.767 0 .285.233.518.513.518.275 0 .479-.191.513-.467v-.023-.027l.651-7.328v-.058c0-.285-.218-.519-.506-.519-.162 0-.325.11-.4.233-.02.042-.054.06-.071.077v.016c-.05.059-.129.192-.245.341-.446.51-1.164.65-2.306.759-1.085.109-6.583.109-7.626.109-.292 0-.333-.218-.333-.576v-12.684c0-.348.097-.481.333-.481.955 0 5.979.082 6.771.191 2.401.29 2.868.901 3.194 1.801.237.602.212 1.65.212 2.011 0 .267.251.499.521.499.258 0 .486-.191.513-.449.075-.685.563-6.354.563-6.68 0-.225-.042-.442-.271-.442-.241 0-.53.134-.771.218-.383.082-1.151.175-2.056.175-.912 0-17.506.017-18.793.017-.726 0-1.043.108-1.043.435 0 .358.284.468.806.468.662 0 1.477.039 1.851.148 1.588.358 1.957 1.143 2.06 2.852.083 1.601.083 28.033-.137 30.144-.197 1.45-.445 2.552-1.392 2.768-.417.093-1.009.192-1.719.192-.571 0-.767.142-.767.392 0 .356.342.501.959.501h19.236c1.809 0 2.356.19 2.586-1.143.153-1.019.778-5.903.778-5.903l-.008-.018c-.002-.019.006-.054.006-.087"/><path d="m563.364 189.197c.659 0 1.484.039 1.851.148 1.577.358 1.953 1.143 2.067 2.852.067 1.601.067 28.033-.168 30.144-.182 1.45-.414 2.552-1.364 2.768-.435.093-1.026.192-1.727.192-.576 0-.767.142-.767.392 0 .356.333.501.941.501h19.26c1.811 0 2.354.19 2.571-1.143.183-1.019.8-5.903.8-5.903l-.019-.018c0-.016.019-.051.019-.084 0-.3-.235-.509-.502-.509-.266 0-.467.176-.5.417-.468 2.051-1.634 3.345-2.868 3.962-1.242.6-3.251.6-4.503.6-4.861 0-4.985-.626-5.07-4.077-.064-1.467 0-11.75 0-11.75 0-.282.052-.499.286-.499 1.116 0 5.859.066 6.77.157 1.768.199 2.435.936 2.694 1.952.123.65.074 1.258.065 1.767 0 .285.234.518.509.518.267 0 .476-.191.506-.467v-.023c0-.027.013-.027.013-.027l.666-7.328h-.009c0-.017.009-.043.009-.058 0-.285-.244-.519-.519-.519-.183 0-.333.11-.415.233-.02.042-.034.06-.059.077l-.018.016c-.041.059-.108.192-.242.341-.433.51-1.143.65-2.285.759-1.093.109-6.588.109-7.637.109-.283 0-.335-.218-.335-.576v-12.684c0-.348.085-.481.335-.481.942 0 5.953.082 6.77.191 2.386.29 2.868.901 3.185 1.801.252.602.228 1.65.228 2.011 0 .267.241.499.525.499.25 0 .467-.191.507-.449.093-.685.559-6.354.559-6.68 0-.225-.032-.442-.284-.442-.223 0-.499.134-.746.218-.402.082-1.152.175-2.063.175-.907 0-27.489.017-28.781.017-.91 0-1.346.108-1.346.483 0 .367.401.419.819.419.607 0 1.35.039 1.908.232.435.166.609.566.609.975 0 .451-.175 1.209-.416 1.859-1.151 3.303-7.356 19.444-9.397 24.974h-.193l-8.219-22.772c-.67-1.816-1.085-3.227-1.085-3.852 0-.477.116-.825.467-1.066.382-.311 1.101-.35 1.877-.35.407 0 .717-.109.717-.468 0-.326-.543-.435-1.095-.435h-37.289c-.716 0-1.237.033-1.237.435 0 .308.188.468.775.468.667 0 1.798 0 2.521.298 1.142.501 1.591 1.46 1.648 4.503l.451 22.531h-.229c-.83-.792-24.736-27.767-25.299-28.409-.813-.909-1.255-1.551-1.76-1.551-.496 0-.633.675-.633 1.677l-.435 30.593c-.041 4.368-.237 5.811-1.476 6.212-.667.191-1.522.25-2.151.25-.479 0-.772.107-.772.392 0 .474.439.501 1.06.501h11.073c.675 0 1.105-.077 1.105-.501 0-.284-.293-.392-.814-.392-.758 0-1.664-.059-2.492-.342-.955-.359-1.572-1.66-1.655-5.586l-.53-21.938h.146c.841.966 22.438 25.905 25.44 28.909.532.541 1.101 1.107 1.625 1.107.417 0 .607-.458.607-1.56l.526-32.293c.052-2.811.442-3.862 1.769-4.253.592-.148 1.276-.148 1.744-.148.565 0 1.616.039 2.132.207 1.068.233 1.536 1.084 1.637 2.793.064 1.601.064 28.291-.158 30.394-.144 1.441-.41 2.302-1.386 2.518-.427.093-1.01.192-1.71.192-.574 0-.783.142-.783.392 0 .356.35.501.958.501h13.476c.526 0 .908-.145.908-.501 0-.25-.251-.392-.766-.392-.725 0-1.759-.1-2.437-.192-1.435-.216-1.782-1.126-1.906-2.477-.194-2.144-.194-28.834-.094-30.435.094-1.75.458-2.602 1.751-2.852.583-.109.968-.148 1.436-.148.38 0 .898 0 1.606.207 1.719.474 2.53 1.043 3.629 3.81l12.022 30.643c.925 2.337 1.203 3.045 1.82 3.045.674 0 .95-.785 2.199-3.694 1.051-2.502 10.213-24.197 12.073-28.9 1.284-3.218 2.003-4.062 2.618-4.519.871-.594 1.874-.594 2.356-.594"/><path d="m794.076 207.148c1.143 0 5.861.041 6.777.142 1.785.201 2.435.992 2.685 2.009.128.65.084 1.258.051 1.767 0 .285.251.518.525.518.284 0 .475-.191.511-.467v-.023-.027l.683-7.328h-.018c0-.017.018-.043.018-.058 0-.285-.25-.519-.524-.519-.179 0-.342.11-.418.233-.027.042-.027.06-.06.077 0 0-.015 0-.015.016-.034.059-.117.192-.241.341-.428.51-1.145.65-2.294.759-1.101.109-6.613.109-7.68.109-.292 0-.326-.166-.326-.477v-12.514c0-.56.149-.718.418-.718l7.353.158c1.828.058 2.684.816 3.021 1.502.29.715.314 1.816.314 2.233 0 .267.226.509.52.509.251 0 .458-.19.499-.433h.008v-.076s.661-6.229.661-6.554c0-.225-.152-.442-.333-.442-.252 0-.485.218-.768.3-.486.143-1.07.093-1.97.093-1.084 0-18.227.017-19.479.017-.699 0-1.083.108-1.083.483 0 .31.333.419.799.419.685 0 1.493.039 1.878.148 1.594.358 1.958 1.143 2.051 2.852.091 1.601.091 28.033-.142 30.144-.201 1.45-.434 2.552-1.385 2.768-.433.093-1.017.192-1.718.192-.541 0-.716.142-.716.392 0 .424.315.501.999.501h13.317c.724 0 1.042-.145 1.042-.501 0-.25-.184-.392-.817-.392-.667 0-1.702-.1-2.376-.192-1.424-.216-1.71-1.317-1.859-2.768-.234-2.11-.234-14.742-.234-14.742 0-.343.085-.451.326-.451"/><path d="m636.448 203.346-1.351-1.077c-3.942-3.15-5.052-4.895-5.052-7.22 0-3.001 2.15-5.171 5.687-5.171 3.091 0 4.478 1.493 5.212 2.479.993 1.3 1.225 2.844 1.225 3.317 0 .201.009.35.049.482.019.078.044.126.066.168 0 .018.011.018.011.018.033.059.067.107.134.141v.017c.09.075.184.118.314.118.285 0 .512-.243.512-.518l.089-6.68c.018-.166.018-.301.018-.383 0-.342-.251-.492-.666-.593-1.234-.341-3.235-.874-6.355-.874-6.638 0-11.023 3.975-11.023 9.505 0 4.052 1.819 7.571 7.072 11.882l2.183 1.792c3.97 3.219 4.688 5.562 4.688 8.038 0 2.651-2.103 5.72-6.404 5.72-2.968 0-5.77-1.359-6.818-5.068-.236-.85-.435-1.91-.435-2.569 0-.124-.019-.266-.032-.392v-.025c0-.265-.234-.476-.512-.476-.283 0-.523.211-.523.476l-.218 7.439c0 1.115.134 1.351.918 1.709 2.044.968 4.176 1.301 6.962 1.301 2.537 0 5.195-.452 7.58-2.051 3.452-2.368 4.485-5.805 4.485-8.74-.002-4.76-2.095-8.113-7.816-12.765"/></g></svg>